<svg width="196" height="54" viewBox="0 0 196 54" fill="none" xmlns="http://www.w3.org/2000/svg">
<g id="Frame" clip-path="url(#clip0_1_29)">
<g id="Group">
<g id="Group_2">
<path id="Vector" d="M12.6247 22.0949C12.6247 22.0949 16.5019 15.8658 23.9331 10.1633C35.3492 1.40916 48.3089 0 48.3089 0L24.1545 42.2719L12.6247 22.0949Z" fill="#71C1BD"/>
<path id="Vector_2" d="M35.6812 22.0949C35.6812 22.0949 31.8041 15.8658 24.3729 10.1633C12.9598 1.40916 0 0 0 0L24.1545 42.2719L35.6812 22.0949Z" fill="#24A1DA"/>
<path id="Vector_3" d="M24.3728 10.1664C24.301 10.1095 24.2263 10.0557 24.1545 10.0018C24.0827 10.0587 24.0079 10.1125 23.9361 10.1664C16.5019 15.8659 12.6247 22.0949 12.6247 22.0949L24.1515 42.269L35.6812 22.0949C35.6812 22.0949 31.8071 15.8659 24.3728 10.1664Z" fill="#034A8E"/>
</g>
<g id="Group_3">
<path id="Vector_4" d="M70.468 46.1646C71.3864 46.1885 72.0775 46.4488 72.5412 46.9454C73.0049 47.4421 73.2382 48.196 73.2382 49.2103C73.2382 50.2215 73.0049 50.9755 72.5412 51.4751C72.0775 51.9717 71.3834 52.232 70.468 52.256H68.3798V46.1646H70.468ZM70.1808 51.7563C70.6146 51.7563 70.9885 51.7085 71.2997 51.6157C71.6138 51.523 71.8711 51.3734 72.0745 51.1669C72.2779 50.9635 72.4275 50.6972 72.5232 50.3741C72.619 50.051 72.6668 49.662 72.6668 49.2073C72.6668 48.7525 72.619 48.3636 72.5232 48.0404C72.4275 47.7173 72.2779 47.451 72.0745 47.2476C71.8711 47.0442 71.6138 46.8946 71.2997 46.7988C70.9885 46.7061 70.6146 46.6582 70.1808 46.6582H68.9542V51.7563H70.1808Z" fill="#68615A"/>
<path id="Vector_5" d="M74.6952 46.1644V47.0261H74.1627V46.1644H74.6952ZM74.6952 47.8518V52.2499H74.1627V47.8518H74.6952Z" fill="#68615A"/>
<path id="Vector_6" d="M75.9128 48.5339C76.0025 48.3455 76.1252 48.1929 76.2807 48.0732C76.4363 47.9535 76.6158 47.8668 76.8252 47.8099C77.0346 47.7531 77.265 47.7231 77.5193 47.7231C77.7107 47.7231 77.9022 47.7411 78.0937 47.78C78.2851 47.8159 78.4586 47.8877 78.6082 47.9894C78.7608 48.0911 78.8835 48.2348 78.9792 48.4202C79.0749 48.6057 79.1228 48.8451 79.1228 49.1413V51.4779C79.1228 51.6933 79.2275 51.801 79.4369 51.801C79.4997 51.801 79.5566 51.7891 79.6074 51.7651V52.2169C79.5446 52.2289 79.4908 52.2379 79.4429 52.2438C79.395 52.2498 79.3352 52.2528 79.2604 52.2528C79.1258 52.2528 79.0151 52.2349 78.9343 52.199C78.8535 52.1631 78.7877 52.1092 78.7428 52.0404C78.698 51.9716 78.6681 51.8908 78.6531 51.7981C78.6381 51.7053 78.6322 51.6006 78.6322 51.4869H78.6142C78.5185 51.6305 78.4198 51.7562 78.321 51.8669C78.2223 51.9776 78.1116 52.0703 77.992 52.1451C77.8693 52.2199 77.7317 52.2768 77.5791 52.3156C77.4235 52.3545 77.2381 52.3755 77.0257 52.3755C76.8222 52.3755 76.6337 52.3515 76.4543 52.3037C76.2777 52.2558 76.1222 52.178 75.9905 52.0733C75.8589 51.9686 75.7542 51.834 75.6764 51.6724C75.6016 51.5108 75.5627 51.3194 75.5627 51.098C75.5627 50.7898 75.6315 50.5505 75.7662 50.3769C75.9008 50.2034 76.0803 50.0718 76.3017 49.982C76.5231 49.8922 76.7744 49.8264 77.0526 49.7905C77.3308 49.7546 77.615 49.7187 77.9022 49.6828C78.0159 49.6708 78.1146 49.6559 78.1984 49.6409C78.2821 49.623 78.3539 49.5931 78.4108 49.5512C78.4676 49.5093 78.5095 49.4494 78.5424 49.3776C78.5723 49.3028 78.5873 49.2071 78.5873 49.0874C78.5873 48.9049 78.5574 48.7553 78.4975 48.6387C78.4377 48.522 78.3569 48.4292 78.2522 48.3604C78.1475 48.2916 78.0278 48.2467 77.8902 48.2198C77.7526 48.1929 77.603 48.1809 77.4475 48.1809C77.1094 48.1809 76.8342 48.2617 76.6188 48.4232C76.4034 48.5848 76.2927 48.8451 76.2807 49.2041H75.7482C75.7692 48.9438 75.823 48.7224 75.9128 48.5339ZM78.5753 49.8474C78.5424 49.9102 78.4766 49.9551 78.3809 49.985C78.2851 50.0149 78.2014 50.0329 78.1266 50.0448C77.9022 50.0837 77.6689 50.1196 77.4295 50.1525C77.1902 50.1825 76.9718 50.2303 76.7744 50.2932C76.5769 50.356 76.4154 50.4457 76.2897 50.5624C76.1641 50.6791 76.0982 50.8437 76.0982 51.0621C76.0982 51.1997 76.1252 51.3194 76.179 51.4241C76.2329 51.5288 76.3047 51.6185 76.3944 51.6963C76.4842 51.7741 76.5889 51.831 76.7085 51.8699C76.8282 51.9088 76.9479 51.9297 77.0705 51.9297C77.274 51.9297 77.4684 51.8998 77.6539 51.8369C77.8394 51.7741 78.0009 51.6844 78.1385 51.5647C78.2762 51.445 78.3869 51.3014 78.4676 51.1309C78.5484 50.9603 78.5903 50.7659 78.5903 50.5505V49.8504H78.5753V49.8474Z" fill="#68615A"/>
<path id="Vector_7" d="M83.8526 52.7703C83.7808 53.0306 83.6701 53.255 83.5175 53.4345C83.3649 53.617 83.1675 53.7547 82.9222 53.8534C82.6769 53.9491 82.3777 54 82.0217 54C81.8033 54 81.5879 53.9731 81.3785 53.9222C81.1691 53.8713 80.9836 53.7906 80.8161 53.6829C80.6485 53.5751 80.5109 53.4375 80.4032 53.27C80.2925 53.1024 80.2297 52.902 80.2117 52.6686H80.7443C80.7712 52.8332 80.828 52.9708 80.9088 53.0815C80.9896 53.1922 81.0883 53.282 81.205 53.3508C81.3216 53.4196 81.4473 53.4704 81.5909 53.5004C81.7315 53.5303 81.8751 53.5482 82.0217 53.5482C82.5183 53.5482 82.8743 53.4046 83.0957 53.1204C83.3141 52.8362 83.4248 52.4263 83.4248 51.8937V51.2984H83.4068C83.2842 51.5706 83.1017 51.789 82.8623 51.9536C82.623 52.1181 82.3418 52.2019 82.0217 52.2019C81.6717 52.2019 81.3725 52.142 81.1272 52.0284C80.8789 51.9117 80.6755 51.7501 80.5139 51.5467C80.3524 51.3432 80.2357 51.1009 80.1639 50.8256C80.0921 50.5504 80.0532 50.2572 80.0532 49.943C80.0532 49.6409 80.0981 49.3566 80.1848 49.0874C80.2716 48.8181 80.4002 48.5817 80.5648 48.3813C80.7323 48.1808 80.9357 48.0193 81.181 47.9026C81.4263 47.7859 81.7076 47.7261 82.0217 47.7261C82.1862 47.7261 82.3388 47.75 82.4824 47.7949C82.626 47.8398 82.7576 47.9056 82.8743 47.9864C82.994 48.0671 83.0987 48.1629 83.1914 48.2706C83.2842 48.3783 83.356 48.492 83.4068 48.6117H83.4248V47.8517H83.9573V51.8937C83.9573 52.2168 83.9214 52.5101 83.8526 52.7703ZM82.629 51.5975C82.8025 51.4988 82.9491 51.3672 83.0688 51.2056C83.1884 51.044 83.2752 50.8585 83.335 50.6461C83.3948 50.4367 83.4248 50.2183 83.4248 49.9999C83.4248 49.7845 83.4008 49.5691 83.35 49.3506C83.2991 49.1352 83.2183 48.9378 83.1047 48.7613C82.991 48.5847 82.8474 48.4441 82.6709 48.3364C82.4944 48.2287 82.279 48.1749 82.0247 48.1749C81.7704 48.1749 81.555 48.2287 81.3755 48.3334C81.196 48.4381 81.0464 48.5758 80.9268 48.7463C80.8071 48.9168 80.7233 49.1113 80.6695 49.3297C80.6156 49.5481 80.5887 49.7725 80.5887 49.9999C80.5887 50.2213 80.6156 50.4367 80.6725 50.6461C80.7293 50.8556 80.8161 51.041 80.9357 51.2056C81.0554 51.3672 81.202 51.4988 81.3845 51.5975C81.564 51.6963 81.7794 51.7471 82.0277 51.7471C82.252 51.7471 82.4555 51.6993 82.629 51.5975Z" fill="#68615A"/>
<path id="Vector_8" d="M85.5787 47.8517V48.6117H85.5967C85.6984 48.3454 85.8779 48.13 86.1382 47.9684C86.3984 47.8069 86.6826 47.7261 86.9908 47.7261C87.2959 47.7261 87.5502 47.765 87.7566 47.8457C87.963 47.9265 88.1276 48.0372 88.2502 48.1808C88.3729 48.3244 88.4627 48.504 88.5135 48.7134C88.5644 48.9228 88.5883 49.1592 88.5883 49.4225V52.2527H88.0558V49.5062C88.0558 49.3177 88.0378 49.1442 88.0049 48.9827C87.972 48.8211 87.9122 48.6805 87.8284 48.5608C87.7447 48.4411 87.631 48.3484 87.4874 48.2796C87.3438 48.2108 87.1643 48.1778 86.9519 48.1778C86.7365 48.1778 86.548 48.2167 86.3805 48.2915C86.2129 48.3693 86.0723 48.474 85.9587 48.6057C85.842 48.7403 85.7522 48.8989 85.6894 49.0844C85.6236 49.2699 85.5907 49.4703 85.5847 49.6857V52.2527H85.0522V47.8547H85.5787V47.8517Z" fill="#68615A"/>
<path id="Vector_9" d="M92.4027 47.9116C92.6599 48.0373 92.8753 48.2048 93.0489 48.4143C93.2224 48.6237 93.357 48.869 93.4467 49.1503C93.5365 49.4315 93.5814 49.7307 93.5814 50.0508C93.5814 50.3679 93.5365 50.6701 93.4467 50.9514C93.357 51.2326 93.2254 51.4779 93.0489 51.6874C92.8753 51.8968 92.6599 52.0643 92.4027 52.187C92.1454 52.3097 91.8522 52.3695 91.5201 52.3695C91.1881 52.3695 90.8919 52.3067 90.6376 52.187C90.3803 52.0643 90.1649 51.8998 89.9914 51.6874C89.8179 51.4779 89.6833 51.2326 89.5935 50.9514C89.5038 50.6701 89.4589 50.3709 89.4589 50.0508C89.4589 49.7337 89.5038 49.4315 89.5935 49.1503C89.6833 48.869 89.8149 48.6237 89.9914 48.4143C90.1649 48.2048 90.3803 48.0373 90.6376 47.9116C90.8949 47.786 91.1881 47.7231 91.5201 47.7231C91.8522 47.7231 92.1484 47.786 92.4027 47.9116ZM90.853 48.3395C90.6615 48.4472 90.503 48.5908 90.3743 48.7643C90.2487 48.9408 90.153 49.1413 90.0871 49.3657C90.0213 49.5901 89.9884 49.8174 89.9884 50.0508C89.9884 50.2842 90.0213 50.5116 90.0871 50.7359C90.153 50.9603 90.2487 51.1608 90.3743 51.3373C90.5 51.5138 90.6615 51.6544 90.853 51.7621C91.0445 51.8699 91.2658 51.9237 91.5201 51.9237C91.7744 51.9237 91.9958 51.8699 92.1873 51.7621C92.3787 51.6544 92.5373 51.5138 92.6659 51.3373C92.7916 51.1608 92.8873 50.9603 92.9531 50.7359C93.0189 50.5116 93.0489 50.2842 93.0489 50.0508C93.0489 49.8174 93.0159 49.5901 92.9531 49.3657C92.8873 49.1413 92.7916 48.9408 92.6659 48.7643C92.5403 48.5878 92.3787 48.4472 92.1873 48.3395C91.9958 48.2318 91.7744 48.1779 91.5201 48.1779C91.2658 48.1779 91.0445 48.2288 90.853 48.3395Z" fill="#68615A"/>
<path id="Vector_10" d="M96.9709 48.7074C96.9081 48.5847 96.8243 48.486 96.7226 48.4052C96.6179 48.3244 96.4982 48.2676 96.3636 48.2317C96.2289 48.1958 96.0854 48.1778 95.9328 48.1778C95.8131 48.1778 95.6934 48.1898 95.5738 48.2167C95.4541 48.2437 95.3404 48.2855 95.2387 48.3454C95.137 48.4052 95.0562 48.483 94.9934 48.5788C94.9306 48.6745 94.9007 48.7942 94.9007 48.9378C94.9007 49.0575 94.9306 49.1592 94.9904 49.24C95.0502 49.3207 95.125 49.3925 95.2148 49.4494C95.3045 49.5062 95.4033 49.5541 95.511 49.59C95.6187 49.6259 95.7174 49.6558 95.8071 49.6798L96.5161 49.8413C96.6687 49.8652 96.8183 49.9041 96.9679 49.964C97.1175 50.0238 97.2491 50.1016 97.3658 50.1973C97.4824 50.2931 97.5752 50.4128 97.65 50.5564C97.7218 50.7 97.7607 50.8675 97.7607 51.059C97.7607 51.2984 97.7068 51.5018 97.5991 51.6693C97.4914 51.8369 97.3568 51.9745 97.1893 52.0792C97.0217 52.1839 96.8362 52.2587 96.6268 52.3066C96.4174 52.3515 96.214 52.3754 96.0106 52.3754C95.499 52.3754 95.0832 52.2527 94.763 52.0104C94.4459 51.7651 94.2634 51.3731 94.2186 50.8346H94.7511C94.772 51.1996 94.9037 51.4719 95.143 51.6574C95.3823 51.8429 95.6785 51.9356 96.0345 51.9356C96.1631 51.9356 96.2978 51.9207 96.4354 51.8937C96.573 51.8638 96.7016 51.8159 96.8213 51.7471C96.941 51.6783 97.0367 51.5916 97.1115 51.4868C97.1863 51.3821 97.2252 51.2535 97.2252 51.0979C97.2252 50.9663 97.1982 50.8585 97.1444 50.7688C97.0905 50.682 97.0187 50.6072 96.929 50.5474C96.8392 50.4876 96.7345 50.4367 96.6209 50.3978C96.5042 50.3589 96.3875 50.323 96.2708 50.2961L95.5857 50.1435C95.4122 50.0986 95.2507 50.0448 95.1041 49.9849C94.9575 49.9251 94.8289 49.8503 94.7182 49.7635C94.6075 49.6768 94.5237 49.5691 94.4609 49.4404C94.3981 49.3118 94.3681 49.1532 94.3681 48.9677C94.3681 48.7463 94.416 48.5548 94.5147 48.3962C94.6135 48.2377 94.7421 48.109 94.9007 48.0133C95.0592 47.9176 95.2357 47.8457 95.4302 47.8009C95.6246 47.756 95.8161 47.7321 96.0076 47.7321C96.226 47.7321 96.4324 47.762 96.6209 47.8188C96.8093 47.8757 96.9769 47.9654 97.1205 48.0821C97.2641 48.2018 97.3777 48.3484 97.4615 48.5249C97.5453 48.7014 97.5931 48.9079 97.6051 49.1472H97.0726C97.0666 48.9737 97.0337 48.8301 96.9709 48.7074Z" fill="#68615A"/>
<path id="Vector_11" d="M100.342 47.8518V48.3036H99.454V51.2715C99.454 51.448 99.4779 51.5857 99.5257 51.6844C99.5736 51.7831 99.6933 51.84 99.8847 51.8519C100.037 51.8519 100.19 51.843 100.339 51.825V52.2768C100.262 52.2768 100.181 52.2798 100.103 52.2857C100.025 52.2917 99.9446 52.2947 99.8668 52.2947C99.5108 52.2947 99.2625 52.2259 99.1219 52.0853C98.9813 51.9477 98.9125 51.6904 98.9184 51.3134V48.3036H98.1586V47.8518H98.9184V46.5294H99.451V47.8518H100.342Z" fill="#68615A"/>
<path id="Vector_12" d="M101.737 46.1644V47.0261H101.204V46.1644H101.737ZM101.737 47.8518V52.2499H101.204V47.8518H101.737Z" fill="#68615A"/>
<path id="Vector_13" d="M105.515 48.4561C105.318 48.2676 105.042 48.1749 104.686 48.1749C104.432 48.1749 104.211 48.2287 104.019 48.3364C103.828 48.4441 103.669 48.5877 103.541 48.7613C103.415 48.9378 103.319 49.1382 103.253 49.3626C103.187 49.587 103.158 49.8144 103.158 50.0478C103.158 50.2811 103.19 50.5085 103.253 50.7329C103.319 50.9573 103.415 51.1577 103.541 51.3343C103.666 51.5108 103.828 51.6514 104.019 51.7591C104.211 51.8668 104.432 51.9207 104.686 51.9207C104.851 51.9207 105.003 51.8907 105.15 51.8279C105.297 51.7651 105.425 51.6783 105.539 51.5676C105.653 51.4569 105.745 51.3253 105.817 51.1727C105.889 51.0201 105.937 50.8526 105.952 50.6701H106.484C106.412 51.2056 106.218 51.6215 105.901 51.9177C105.587 52.2169 105.18 52.3664 104.683 52.3664C104.351 52.3664 104.055 52.3036 103.801 52.1839C103.543 52.0613 103.328 51.8967 103.155 51.6843C102.981 51.4749 102.846 51.2295 102.757 50.9483C102.667 50.6671 102.622 50.3679 102.622 50.0478C102.622 49.7306 102.667 49.4284 102.757 49.1472C102.846 48.866 102.978 48.6206 103.155 48.4112C103.328 48.2018 103.543 48.0342 103.801 47.9086C104.058 47.7829 104.351 47.7201 104.683 47.7201C105.15 47.7201 105.548 47.8458 105.871 48.0941C106.194 48.3454 106.389 48.7224 106.448 49.228H105.916C105.847 48.9049 105.712 48.6446 105.515 48.4561Z" fill="#68615A"/>
<path id="Vector_14" d="M109.826 48.7074C109.763 48.5847 109.679 48.486 109.578 48.4052C109.473 48.3244 109.353 48.2676 109.219 48.2317C109.084 48.1958 108.94 48.1778 108.788 48.1778C108.668 48.1778 108.549 48.1898 108.429 48.2167C108.309 48.2437 108.196 48.2855 108.094 48.3454C107.992 48.4052 107.911 48.483 107.848 48.5788C107.786 48.6745 107.756 48.7942 107.756 48.9378C107.756 49.0575 107.786 49.1592 107.845 49.24C107.905 49.3207 107.98 49.3925 108.07 49.4494C108.16 49.5062 108.258 49.5541 108.366 49.59C108.474 49.6259 108.572 49.6558 108.662 49.6798L109.371 49.8413C109.524 49.8652 109.673 49.9041 109.823 49.964C109.973 50.0238 110.104 50.1016 110.221 50.1973C110.338 50.2931 110.43 50.4128 110.505 50.5564C110.577 50.7 110.616 50.8675 110.616 51.059C110.616 51.2984 110.562 51.5018 110.454 51.6693C110.346 51.8369 110.212 51.9745 110.044 52.0792C109.877 52.1839 109.691 52.2587 109.482 52.3066C109.272 52.3515 109.069 52.3754 108.866 52.3754C108.354 52.3754 107.938 52.2527 107.618 52.0104C107.301 51.7651 107.119 51.3731 107.074 50.8346H107.606C107.627 51.1996 107.759 51.4719 107.998 51.6574C108.237 51.8429 108.534 51.9356 108.89 51.9356C109.018 51.9356 109.153 51.9207 109.29 51.8937C109.428 51.8638 109.557 51.8159 109.676 51.7471C109.796 51.6783 109.892 51.5916 109.967 51.4868C110.041 51.3821 110.08 51.2535 110.08 51.0979C110.08 50.9663 110.053 50.8585 109.999 50.7688C109.946 50.682 109.874 50.6072 109.784 50.5474C109.694 50.4876 109.59 50.4367 109.476 50.3978C109.359 50.3589 109.243 50.323 109.126 50.2961L108.441 50.1435C108.267 50.0986 108.106 50.0448 107.959 49.9849C107.813 49.9251 107.684 49.8503 107.573 49.7635C107.463 49.6768 107.379 49.5691 107.316 49.4404C107.253 49.3118 107.223 49.1532 107.223 48.9677C107.223 48.7463 107.271 48.5548 107.37 48.3962C107.469 48.2377 107.597 48.109 107.756 48.0133C107.914 47.9176 108.091 47.8457 108.285 47.8009C108.48 47.756 108.671 47.7321 108.863 47.7321C109.081 47.7321 109.287 47.762 109.476 47.8188C109.664 47.8757 109.832 47.9654 109.976 48.0821C110.119 48.2018 110.233 48.3484 110.317 48.5249C110.4 48.7014 110.448 48.9079 110.46 49.1472H109.928C109.922 48.9737 109.886 48.8301 109.826 48.7074Z" fill="#68615A"/>
<path id="Vector_15" d="M114.008 48.5339C114.098 48.3455 114.221 48.1929 114.376 48.0732C114.532 47.9535 114.711 47.8668 114.921 47.8099C115.13 47.7531 115.36 47.7231 115.615 47.7231C115.806 47.7231 115.998 47.7411 116.189 47.78C116.381 47.8159 116.551 47.8877 116.704 47.9894C116.856 48.0911 116.979 48.2348 117.075 48.4202C117.17 48.6057 117.218 48.8451 117.218 49.1413V51.4779C117.218 51.6933 117.323 51.801 117.532 51.801C117.595 51.801 117.652 51.7891 117.703 51.7651V52.2169C117.64 52.2289 117.586 52.2379 117.538 52.2438C117.491 52.2498 117.431 52.2528 117.356 52.2528C117.221 52.2528 117.111 52.2349 117.03 52.199C116.949 52.1631 116.883 52.1092 116.838 52.0404C116.793 51.9716 116.764 51.8908 116.749 51.7981C116.734 51.7053 116.728 51.6006 116.728 51.4869H116.71C116.614 51.6305 116.515 51.7562 116.417 51.8669C116.318 51.9776 116.207 52.0703 116.087 52.1451C115.965 52.2199 115.827 52.2768 115.675 52.3156C115.519 52.3545 115.334 52.3755 115.121 52.3755C114.918 52.3755 114.729 52.3515 114.55 52.3037C114.373 52.2558 114.218 52.178 114.086 52.0733C113.954 51.9686 113.85 51.834 113.772 51.6724C113.697 51.5108 113.658 51.3194 113.658 51.098C113.658 50.7898 113.727 50.5505 113.862 50.3769C113.996 50.2034 114.176 50.0718 114.397 49.982C114.619 49.8922 114.87 49.8264 115.148 49.7905C115.426 49.7546 115.71 49.7187 115.998 49.6828C116.111 49.6708 116.21 49.6559 116.294 49.6409C116.378 49.623 116.449 49.5931 116.506 49.5512C116.563 49.5093 116.605 49.4494 116.638 49.3776C116.668 49.3028 116.683 49.2071 116.683 49.0874C116.683 48.9049 116.653 48.7553 116.593 48.6387C116.533 48.522 116.452 48.4292 116.348 48.3604C116.243 48.2916 116.123 48.2467 115.986 48.2198C115.848 48.1929 115.699 48.1809 115.543 48.1809C115.205 48.1809 114.93 48.2617 114.714 48.4232C114.499 48.5848 114.388 48.8451 114.376 49.2041H113.844C113.865 48.9438 113.919 48.7224 114.008 48.5339ZM116.671 49.8474C116.638 49.9102 116.572 49.9551 116.476 49.985C116.381 50.0149 116.297 50.0329 116.222 50.0448C115.998 50.0837 115.764 50.1196 115.525 50.1525C115.286 50.1825 115.067 50.2303 114.87 50.2932C114.672 50.356 114.511 50.4457 114.385 50.5624C114.26 50.6791 114.194 50.8437 114.194 51.0621C114.194 51.1997 114.221 51.3194 114.275 51.4241C114.328 51.5288 114.4 51.6185 114.49 51.6963C114.58 51.7741 114.684 51.831 114.804 51.8699C114.924 51.9088 115.043 51.9297 115.166 51.9297C115.369 51.9297 115.564 51.8998 115.749 51.8369C115.935 51.7741 116.096 51.6844 116.234 51.5647C116.372 51.445 116.482 51.3014 116.563 51.1309C116.644 50.9603 116.686 50.7659 116.686 50.5505V49.8504H116.671V49.8474Z" fill="#68615A"/>
<path id="Vector_16" d="M118.894 47.8517V48.6117H118.912C119.013 48.3454 119.193 48.13 119.453 47.9684C119.713 47.8069 119.998 47.7261 120.306 47.7261C120.611 47.7261 120.865 47.765 121.072 47.8457C121.278 47.9265 121.442 48.0372 121.565 48.1808C121.688 48.3244 121.778 48.504 121.828 48.7134C121.879 48.9228 121.903 49.1592 121.903 49.4225V52.2527H121.371V49.5062C121.371 49.3177 121.353 49.1442 121.32 48.9827C121.287 48.8211 121.227 48.6805 121.143 48.5608C121.06 48.4411 120.946 48.3484 120.802 48.2796C120.659 48.2108 120.479 48.1778 120.267 48.1778C120.054 48.1778 119.863 48.2167 119.695 48.2915C119.528 48.3693 119.387 48.474 119.274 48.6057C119.157 48.7403 119.067 48.8989 119.004 49.0844C118.938 49.2699 118.906 49.4703 118.9 49.6857V52.2527H118.367V47.8547H118.894V47.8517Z" fill="#68615A"/>
<path id="Vector_17" d="M126.337 52.2498V51.4151H126.319C126.262 51.5557 126.178 51.6873 126.071 51.807C125.96 51.9267 125.834 52.0284 125.694 52.1092C125.553 52.193 125.403 52.2558 125.242 52.3007C125.08 52.3455 124.922 52.3695 124.763 52.3695C124.431 52.3695 124.141 52.3066 123.899 52.187C123.653 52.0643 123.45 51.8968 123.285 51.6843C123.121 51.4719 123.001 51.2236 122.923 50.9424C122.846 50.6611 122.804 50.3649 122.804 50.0508C122.804 49.7366 122.843 49.4405 122.923 49.1592C123.001 48.878 123.124 48.6297 123.285 48.4172C123.45 48.2048 123.653 48.0343 123.899 47.9086C124.144 47.783 124.431 47.7201 124.763 47.7201C124.928 47.7201 125.086 47.7411 125.242 47.78C125.397 47.8189 125.541 47.8817 125.676 47.9625C125.81 48.0462 125.93 48.145 126.035 48.2647C126.139 48.3843 126.22 48.522 126.277 48.6835H126.295V46.1614H126.827V52.2498H126.337ZM123.417 50.7299C123.471 50.9543 123.555 51.1548 123.671 51.3313C123.788 51.5078 123.934 51.6514 124.114 51.7621C124.293 51.8728 124.512 51.9297 124.763 51.9297C125.044 51.9297 125.284 51.8728 125.478 51.7621C125.673 51.6514 125.831 51.5078 125.951 51.3313C126.071 51.1548 126.16 50.9543 126.214 50.7299C126.268 50.5056 126.295 50.2812 126.295 50.0538C126.295 49.8264 126.268 49.602 126.214 49.3746C126.16 49.1502 126.074 48.9498 125.951 48.7733C125.828 48.5968 125.673 48.4531 125.478 48.3424C125.284 48.2317 125.044 48.1779 124.763 48.1779C124.509 48.1779 124.293 48.2317 124.114 48.3424C123.934 48.4531 123.785 48.5968 123.671 48.7733C123.555 48.9498 123.471 49.1502 123.417 49.3746C123.363 49.599 123.336 49.8264 123.336 50.0538C123.339 50.2782 123.363 50.5056 123.417 50.7299Z" fill="#68615A"/>
<path id="Vector_18" d="M131.037 46.1644V48.8062H134.621V46.1644H135.195V52.2529H134.621V49.3029H131.037V52.2529H130.462V46.1644H131.037Z" fill="#68615A"/>
<path id="Vector_19" d="M136.787 50.7987C136.84 51.0051 136.927 51.1936 137.044 51.3582C137.164 51.5227 137.31 51.6604 137.493 51.7681C137.672 51.8758 137.89 51.9296 138.142 51.9296C138.531 51.9296 138.836 51.8279 139.054 51.6215C139.273 51.418 139.425 51.1428 139.512 50.8017H140.044C139.931 51.3013 139.724 51.6873 139.422 51.9625C139.12 52.2348 138.695 52.3724 138.142 52.3724C137.798 52.3724 137.502 52.3096 137.25 52.1899C136.999 52.0673 136.796 51.8997 136.637 51.6873C136.478 51.4749 136.362 51.2265 136.287 50.9453C136.212 50.6641 136.173 50.3679 136.173 50.0537C136.173 49.7635 136.212 49.4793 136.287 49.2011C136.362 48.9228 136.478 48.6745 136.637 48.4561C136.796 48.2377 136.999 48.0612 137.25 47.9265C137.502 47.7919 137.798 47.7261 138.142 47.7261C138.492 47.7261 138.791 47.7979 139.036 47.9385C139.285 48.0791 139.485 48.2676 139.641 48.498C139.796 48.7283 139.907 48.9916 139.976 49.2908C140.044 49.59 140.071 49.8922 140.059 50.2003H136.706C136.706 50.3888 136.733 50.5893 136.787 50.7987ZM139.425 49.1562C139.359 48.9677 139.27 48.8031 139.15 48.6565C139.033 48.5099 138.887 48.3963 138.719 48.3065C138.552 48.2167 138.36 48.1749 138.145 48.1749C137.926 48.1749 137.732 48.2197 137.561 48.3065C137.391 48.3933 137.25 48.5099 137.131 48.6565C137.011 48.8002 136.918 48.9677 136.846 49.1592C136.775 49.3506 136.73 49.5451 136.706 49.7426H139.527C139.524 49.5391 139.488 49.3447 139.425 49.1562Z" fill="#68615A"/>
<path id="Vector_20" d="M140.975 48.5339C141.065 48.3455 141.187 48.1929 141.343 48.0732C141.498 47.9535 141.678 47.8668 141.887 47.8099C142.097 47.7531 142.327 47.7231 142.581 47.7231C142.773 47.7231 142.964 47.7411 143.156 47.78C143.347 47.8159 143.518 47.8877 143.67 47.9894C143.823 48.0911 143.946 48.2348 144.041 48.4202C144.137 48.6057 144.185 48.8451 144.185 49.1413V51.4779C144.185 51.6933 144.29 51.801 144.496 51.801C144.559 51.801 144.616 51.7891 144.667 51.7651V52.2169C144.604 52.2289 144.55 52.2379 144.502 52.2438C144.454 52.2498 144.394 52.2528 144.319 52.2528C144.185 52.2528 144.074 52.2349 143.993 52.199C143.913 52.1631 143.847 52.1092 143.802 52.0404C143.757 51.9716 143.727 51.8908 143.712 51.7981C143.697 51.7053 143.691 51.6006 143.691 51.4869H143.673C143.578 51.6305 143.479 51.7562 143.38 51.8669C143.281 51.9776 143.171 52.0703 143.051 52.1451C142.928 52.2199 142.791 52.2768 142.638 52.3156C142.483 52.3545 142.297 52.3755 142.085 52.3755C141.881 52.3755 141.693 52.3515 141.513 52.3037C141.337 52.2558 141.181 52.178 141.05 52.0733C140.918 51.9686 140.813 51.834 140.736 51.6724C140.661 51.5108 140.622 51.3194 140.622 51.098C140.622 50.7898 140.691 50.5505 140.825 50.3769C140.96 50.2034 141.139 50.0718 141.361 49.982C141.582 49.8922 141.833 49.8264 142.112 49.7905C142.39 49.7546 142.674 49.7187 142.961 49.6828C143.075 49.6708 143.174 49.6559 143.257 49.6409C143.341 49.623 143.413 49.5931 143.47 49.5512C143.527 49.5093 143.569 49.4494 143.602 49.3776C143.631 49.3028 143.646 49.2071 143.646 49.0874C143.646 48.9049 143.616 48.7553 143.557 48.6387C143.497 48.522 143.416 48.4292 143.311 48.3604C143.207 48.2916 143.087 48.2467 142.949 48.2198C142.812 48.1929 142.662 48.1809 142.507 48.1809C142.169 48.1809 141.893 48.2617 141.678 48.4232C141.462 48.5848 141.352 48.8451 141.34 49.2041H140.807C140.831 48.9438 140.885 48.7224 140.975 48.5339ZM143.637 49.8474C143.604 49.9102 143.539 49.9551 143.443 49.985C143.347 50.0149 143.263 50.0329 143.189 50.0448C142.964 50.0837 142.731 50.1196 142.492 50.1525C142.252 50.1825 142.034 50.2303 141.836 50.2932C141.639 50.356 141.477 50.4457 141.352 50.5624C141.226 50.6791 141.16 50.8437 141.16 51.0621C141.16 51.1997 141.187 51.3194 141.241 51.4241C141.295 51.5288 141.367 51.6185 141.456 51.6963C141.546 51.7741 141.651 51.831 141.771 51.8699C141.89 51.9088 142.01 51.9297 142.133 51.9297C142.336 51.9297 142.53 51.8998 142.716 51.8369C142.901 51.7741 143.063 51.6844 143.201 51.5647C143.338 51.445 143.449 51.3014 143.53 51.1309C143.61 50.9603 143.652 50.7659 143.652 50.5505V49.8504H143.637V49.8474Z" fill="#68615A"/>
<path id="Vector_21" d="M145.875 46.1644V52.2529H145.343V46.1644H145.875Z" fill="#68615A"/>
<path id="Vector_22" d="M148.714 47.8518V48.3036H147.826V51.2715C147.826 51.448 147.85 51.5857 147.898 51.6844C147.945 51.7831 148.065 51.84 148.257 51.8519C148.409 51.8519 148.562 51.843 148.711 51.825V52.2768C148.633 52.2768 148.553 52.2798 148.475 52.2857C148.397 52.2917 148.316 52.2947 148.239 52.2947C147.883 52.2947 147.634 52.2259 147.494 52.0853C147.353 51.9477 147.284 51.6904 147.29 51.3134V48.3036H146.53V47.8518H147.29V46.5294H147.823V47.8518H148.714Z" fill="#68615A"/>
<path id="Vector_23" d="M150.093 46.1644V48.6118H150.111C150.213 48.3455 150.393 48.1301 150.653 47.9685C150.913 47.807 151.197 47.7262 151.505 47.7262C151.811 47.7262 152.065 47.7651 152.271 47.8458C152.478 47.9266 152.642 48.0373 152.765 48.1809C152.888 48.3245 152.977 48.5041 153.028 48.7135C153.079 48.9229 153.103 49.1593 153.103 49.4226V52.2529H152.57V49.5063C152.57 49.3178 152.552 49.1443 152.52 48.9828C152.487 48.8212 152.427 48.6806 152.343 48.5609C152.259 48.4412 152.146 48.3485 152.002 48.2797C151.858 48.2109 151.679 48.1779 151.467 48.1779C151.251 48.1779 151.063 48.2168 150.895 48.2916C150.728 48.3694 150.587 48.4741 150.473 48.6058C150.357 48.7404 150.267 48.899 150.204 49.0845C150.138 49.27 150.105 49.4704 150.099 49.6858V52.2529H149.567V46.1644H150.093Z" fill="#68615A"/>
<path id="Vector_24" d="M156.863 48.4561C156.666 48.2676 156.391 48.1749 156.035 48.1749C155.78 48.1749 155.559 48.2287 155.368 48.3364C155.176 48.4441 155.018 48.5877 154.889 48.7613C154.763 48.9378 154.668 49.1382 154.602 49.3626C154.536 49.587 154.503 49.8144 154.503 50.0478C154.503 50.2811 154.536 50.5085 154.602 50.7329C154.668 50.9573 154.763 51.1577 154.889 51.3343C155.015 51.5108 155.176 51.6514 155.368 51.7591C155.559 51.8668 155.78 51.9207 156.035 51.9207C156.199 51.9207 156.352 51.8907 156.498 51.8279C156.645 51.7651 156.774 51.6783 156.887 51.5676C157.001 51.4569 157.094 51.3253 157.166 51.1727C157.24 51.0201 157.285 50.8526 157.3 50.6701H157.833C157.761 51.2056 157.566 51.6215 157.249 51.9177C156.935 52.2169 156.528 52.3664 156.032 52.3664C155.7 52.3664 155.407 52.3036 155.149 52.1839C154.892 52.0613 154.677 51.8967 154.503 51.6843C154.33 51.4749 154.195 51.2295 154.105 50.9483C154.015 50.6671 153.971 50.3679 153.971 50.0478C153.971 49.7306 154.015 49.4284 154.105 49.1472C154.195 48.866 154.327 48.6206 154.503 48.4112C154.677 48.2018 154.892 48.0342 155.149 47.9086C155.407 47.7829 155.7 47.7201 156.032 47.7201C156.498 47.7201 156.896 47.8458 157.219 48.0941C157.543 48.3454 157.737 48.7224 157.797 49.228H157.264C157.196 48.9049 157.061 48.6446 156.863 48.4561Z" fill="#68615A"/>
<path id="Vector_25" d="M158.772 48.5339C158.862 48.3455 158.984 48.1929 159.14 48.0732C159.296 47.9535 159.475 47.8668 159.685 47.8099C159.894 47.7531 160.124 47.7231 160.379 47.7231C160.57 47.7231 160.762 47.7411 160.953 47.78C161.144 47.8159 161.318 47.8877 161.468 47.9894C161.62 48.0911 161.743 48.2348 161.838 48.4202C161.934 48.6057 161.982 48.8451 161.982 49.1413V51.4779C161.982 51.6933 162.087 51.801 162.296 51.801C162.359 51.801 162.416 51.7891 162.467 51.7651V52.2169C162.404 52.2289 162.35 52.2379 162.302 52.2438C162.254 52.2498 162.195 52.2528 162.12 52.2528C161.985 52.2528 161.874 52.2349 161.794 52.199C161.713 52.1631 161.647 52.1092 161.602 52.0404C161.557 51.9716 161.527 51.8908 161.512 51.7981C161.497 51.7053 161.491 51.6006 161.491 51.4869H161.474C161.378 51.6305 161.279 51.7562 161.183 51.8669C161.085 51.9776 160.974 52.0703 160.854 52.1451C160.732 52.2199 160.594 52.2768 160.441 52.3156C160.286 52.3545 160.1 52.3755 159.888 52.3755C159.685 52.3755 159.496 52.3515 159.317 52.3037C159.14 52.2558 158.984 52.178 158.853 52.0733C158.721 51.9686 158.617 51.834 158.539 51.6724C158.464 51.5108 158.425 51.3194 158.425 51.098C158.425 50.7898 158.494 50.5505 158.628 50.3769C158.763 50.2034 158.943 50.0718 159.164 49.982C159.385 49.8922 159.637 49.8264 159.915 49.7905C160.193 49.7546 160.477 49.7187 160.765 49.6828C160.878 49.6708 160.977 49.6559 161.061 49.6409C161.144 49.623 161.216 49.5931 161.273 49.5512C161.33 49.5093 161.372 49.4494 161.405 49.3776C161.435 49.3028 161.453 49.2071 161.453 49.0874C161.453 48.9049 161.423 48.7553 161.363 48.6387C161.303 48.522 161.222 48.4292 161.118 48.3604C161.013 48.2916 160.893 48.2467 160.753 48.2198C160.615 48.1929 160.465 48.1809 160.31 48.1809C159.972 48.1809 159.697 48.2617 159.481 48.4232C159.266 48.5848 159.155 48.8451 159.143 49.2041H158.611C158.628 48.9438 158.682 48.7224 158.772 48.5339ZM161.435 49.8474C161.402 49.9102 161.336 49.9551 161.24 49.985C161.144 50.0149 161.061 50.0329 160.986 50.0448C160.762 50.0837 160.528 50.1196 160.289 50.1525C160.05 50.1825 159.831 50.2303 159.634 50.2932C159.436 50.356 159.275 50.4457 159.149 50.5624C159.023 50.6791 158.958 50.8437 158.958 51.0621C158.958 51.1997 158.984 51.3194 159.038 51.4241C159.092 51.5288 159.164 51.6185 159.254 51.6963C159.343 51.7741 159.448 51.831 159.565 51.8699C159.685 51.9088 159.804 51.9297 159.93 51.9297C160.133 51.9297 160.328 51.8998 160.513 51.8369C160.699 51.7741 160.86 51.6844 160.998 51.5647C161.135 51.445 161.246 51.3014 161.327 51.1309C161.408 50.9603 161.45 50.7659 161.45 50.5505V49.8504H161.435V49.8474Z" fill="#68615A"/>
<path id="Vector_26" d="M163.622 47.8518V48.884H163.639C163.774 48.525 163.984 48.2497 164.268 48.0583C164.552 47.8668 164.893 47.777 165.285 47.795V48.3305C165.043 48.3185 164.824 48.3515 164.627 48.4292C164.429 48.507 164.259 48.6147 164.115 48.7583C163.972 48.899 163.861 49.0695 163.78 49.264C163.702 49.4584 163.66 49.6739 163.66 49.9072V52.2528H163.128V47.8548H163.622V47.8518Z" fill="#68615A"/>
<path id="Vector_27" d="M166.12 50.7987C166.173 51.0051 166.26 51.1936 166.377 51.3582C166.496 51.5227 166.643 51.6604 166.826 51.7681C167.005 51.8758 167.223 51.9296 167.475 51.9296C167.864 51.9296 168.169 51.8279 168.387 51.6215C168.606 51.418 168.758 51.1428 168.845 50.8017H169.377C169.264 51.3013 169.057 51.6873 168.755 51.9625C168.453 52.2348 168.028 52.3724 167.475 52.3724C167.131 52.3724 166.835 52.3096 166.583 52.1899C166.332 52.0673 166.129 51.8997 165.97 51.6873C165.811 51.4749 165.695 51.2265 165.62 50.9453C165.545 50.6641 165.506 50.3679 165.506 50.0537C165.506 49.7635 165.545 49.4793 165.62 49.2011C165.695 48.9228 165.814 48.6745 165.97 48.4561C166.129 48.2377 166.332 48.0612 166.583 47.9265C166.835 47.7919 167.131 47.7261 167.475 47.7261C167.825 47.7261 168.121 47.7979 168.369 47.9385C168.618 48.0791 168.818 48.2676 168.974 48.498C169.129 48.7283 169.24 48.9916 169.309 49.2908C169.377 49.59 169.404 49.8922 169.392 50.2003H166.039C166.039 50.3888 166.066 50.5893 166.12 50.7987ZM168.758 49.1562C168.692 48.9677 168.603 48.8031 168.483 48.6565C168.363 48.5099 168.22 48.3963 168.052 48.3065C167.885 48.2167 167.69 48.1749 167.478 48.1749C167.259 48.1749 167.065 48.2197 166.894 48.3065C166.724 48.3933 166.583 48.5099 166.464 48.6565C166.344 48.8002 166.251 48.9677 166.179 49.1592C166.108 49.3506 166.063 49.5451 166.039 49.7426H168.86C168.857 49.5391 168.821 49.3447 168.758 49.1562Z" fill="#68615A"/>
</g>
<g id="Group_4">
<g id="Group_5">
<path id="Vector_28" d="M62.7376 30.0263C59.5485 30.0263 56.3564 30.0263 53.1673 30.0263C53.0118 30.0263 52.8562 30.0413 52.6797 30.0502C52.6797 30.5379 52.6797 30.9927 52.6797 31.5013C55.6653 31.5013 58.6241 31.5013 61.7085 31.5013C61.5918 32.2253 61.5439 32.8686 61.3764 33.4789C59.7729 39.4237 52.5211 41.877 47.4264 38.5441C44.0967 36.366 42.8163 33.1259 43.274 29.2155C43.7586 25.0568 46.6516 21.9333 50.7321 21.2273C54.3311 20.6049 57.4543 21.5683 59.8716 24.4525C59.9284 24.5213 60.0092 24.5692 60.1079 24.6499C60.5178 24.2999 60.9097 23.9648 61.2986 23.6327C61.2447 23.534 61.2268 23.4861 61.1969 23.4532C61.0443 23.2677 60.8947 23.0792 60.7302 22.9057C58.9532 21.0208 56.7723 19.9378 54.2144 19.5997C51.6386 19.2586 49.1915 19.6446 46.9238 20.94C41.6735 23.9379 40.1088 30.514 42.6577 35.6241C45.2874 40.8957 51.4232 42.8344 56.5838 40.8478C60.8828 39.1933 63.4257 35.3159 63.3718 30.6815C63.3658 30.0383 63.3539 30.0263 62.7376 30.0263Z" fill="#034A8E"/>
<path id="Vector_29" d="M130.848 37.4551C130.806 37.479 130.767 37.5059 130.725 37.5299C130.672 37.4401 130.627 37.3414 130.561 37.2606C125.876 31.618 121.185 25.9813 116.518 20.3237C116.099 19.8151 115.654 19.7882 115.109 19.9078C115.109 26.8699 115.109 33.811 115.109 40.7461C115.651 40.7461 116.153 40.7461 116.71 40.7461C116.71 34.8791 116.71 29.042 116.71 23.0642C116.988 23.3933 117.179 23.6147 117.368 23.8391C121.912 29.3112 126.468 34.7744 130.989 40.2644C131.437 40.8089 131.889 40.8329 132.464 40.7282C132.464 33.7691 132.464 26.84 132.464 19.8929C131.922 19.8929 131.408 19.8929 130.851 19.8929C130.848 25.7749 130.848 31.615 130.848 37.4551Z" fill="#034A8E"/>
<path id="Vector_30" d="M81.0853 39.8127C80.9327 39.8605 80.8459 39.8875 80.7562 39.9174C79.76 40.2405 78.8744 40.0012 78.2552 39.1395C77.8393 38.5591 77.4953 37.9188 77.1842 37.2756C76.2986 35.4416 75.7721 33.4191 74.2613 31.8424C74.4767 31.8035 74.6353 31.7945 74.7789 31.7466C75.5926 31.4833 76.4602 31.3158 77.2081 30.9179C79.4399 29.7361 80.1399 27.4773 79.9245 25.1227C79.7659 23.3964 79.036 21.9962 77.5731 21.0328C76.4931 20.3237 75.2785 19.9617 74.01 19.9288C71.2697 19.86 68.5264 19.872 65.783 19.854C65.6933 19.854 65.6065 19.8899 65.5228 19.9049C65.5228 27.0105 65.5228 34.0863 65.5228 41.156C66.0822 41.156 66.5968 41.156 67.1502 41.156C67.1502 38.0624 67.1502 35.0048 67.1502 31.8932C67.3596 31.8932 67.5302 31.8932 67.7037 31.8932C68.8345 31.8932 69.9713 31.9441 71.0992 31.8783C72.0266 31.8244 72.6578 32.2044 73.1455 32.9344C73.307 33.1737 73.4955 33.3981 73.6151 33.6584C74.2733 35.0616 74.9135 36.4708 75.5567 37.8799C76.0443 38.945 76.5499 39.9982 77.4624 40.779C78.4706 41.6407 80.095 41.8621 81.181 41.2607C81.3066 41.1919 81.4742 40.9945 81.4502 40.8927C81.3725 40.5307 81.2169 40.1837 81.0853 39.8127ZM73.4506 30.4302C71.4432 30.4452 69.4358 30.4422 67.4284 30.4422C67.3507 30.4422 67.2729 30.4272 67.1502 30.4123C67.1502 27.3875 67.1502 24.4136 67.1502 21.4038C67.2818 21.3888 67.4015 21.3679 67.5212 21.3679C69.5435 21.3679 71.5689 21.338 73.5912 21.3828C74.9285 21.4098 76.185 21.7808 77.1333 22.804C78.3479 24.1144 78.5095 25.6911 78.0517 27.3366C77.582 29.033 76.3435 29.9425 74.6802 30.2986C74.2793 30.3793 73.8634 30.4272 73.4506 30.4302Z" fill="#034A8E"/>
<path id="Vector_31" d="M164.334 41.1589C168.809 41.1589 173.249 41.1589 177.673 41.1589C177.673 40.6623 177.673 40.2045 177.673 39.6929C173.751 39.6929 169.868 39.6929 165.973 39.6929C165.973 36.8267 165.973 34.0144 165.973 31.1452C169.063 31.1452 172.118 31.1452 175.178 31.1452C175.178 30.6336 175.178 30.1818 175.178 29.6732C172.091 29.6732 169.036 29.6732 165.967 29.6732C165.967 26.8818 165.967 24.1502 165.967 21.3499C169.892 21.3499 173.787 21.3499 177.679 21.3499C177.679 20.8263 177.679 20.3655 177.679 19.8809C173.222 19.8809 168.797 19.8809 164.334 19.8809C164.334 27.0105 164.334 34.0892 164.334 41.1589Z" fill="#034A8E"/>
<path id="Vector_32" d="M161.183 19.845C160.645 19.7612 160.417 19.9976 160.217 20.4853C157.961 25.9723 155.679 31.4474 153.399 36.9225C153.202 37.3982 152.989 37.8679 152.747 38.4334C152.558 37.9756 152.415 37.6196 152.268 37.2696C150.276 32.4706 148.289 27.6687 146.282 22.8757C145.962 22.1128 145.615 21.3469 145.172 20.6528C144.463 19.5458 143.123 19.1718 141.932 19.6864C141.738 19.7702 141.462 20.0335 141.483 20.1741C141.537 20.5511 141.735 20.9101 141.872 21.2751C143.015 20.8024 143.521 20.9879 144.086 22.032C144.131 22.1158 144.179 22.1996 144.218 22.2893C144.774 23.5998 145.331 24.9102 145.884 26.2206C147.939 31.0974 149.998 35.9711 152.038 40.8568C152.086 40.9735 152.158 41.0842 152.271 41.144C152.373 41.1979 152.487 41.1889 152.597 41.1919C152.714 41.1919 152.837 41.1949 152.953 41.2038C153.049 41.2098 153.151 41.2068 153.229 41.141C153.321 41.0602 153.369 40.9376 153.417 40.8269C154 39.4237 154.587 38.0235 155.179 36.6263C157.285 31.6479 159.394 26.6724 161.503 21.697C161.746 21.1285 161.973 20.5541 162.257 19.8629C161.812 19.854 161.491 19.8929 161.183 19.845Z" fill="#034A8E"/>
<path id="Vector_33" d="M195.461 19.8539C190.537 19.8539 185.61 19.8539 180.686 19.8539C180.575 19.8539 180.452 19.827 180.354 19.8629C180.258 19.8988 180.12 20.0005 180.114 20.0783C180.09 20.4882 180.102 20.9041 180.102 21.3678C182.496 21.3678 184.832 21.3678 187.226 21.3678C187.226 28.0008 187.226 34.5769 187.226 41.1769C187.791 41.1769 188.294 41.1769 188.889 41.1769C188.889 34.5529 188.889 27.9738 188.889 21.3379C191.294 21.3379 193.646 21.3379 196 21.3379C196 20.8263 196 20.3685 196 19.8509C195.803 19.8539 195.632 19.8539 195.461 19.8539Z" fill="#034A8E"/>
</g>
<path id="Vector_34" d="M85.0402 39.678C85.0402 36.8118 85.0402 33.9964 85.0402 31.1422C85.2646 31.1422 85.4531 31.1422 85.6415 31.1422C87.5382 31.1422 89.4379 31.1422 91.3346 31.1422C92.1813 31.1422 93.0249 31.1512 93.8715 31.1332H93.8745C93.9792 31.1332 94.0839 31.1332 94.1886 31.1332C94.1886 31.0884 94.1886 31.0435 94.1886 30.9986C94.1886 30.5558 94.1886 30.1459 94.1886 29.6792C91.1132 29.6792 88.0468 29.6792 84.9624 29.6792C84.9624 26.8758 84.9624 24.1413 84.9624 21.3529C84.9864 21.3529 85.0073 21.3529 85.0313 21.3529C88.9174 21.3529 92.7766 21.3529 96.6538 21.3529C96.6538 21.3499 96.6538 21.3499 96.6538 21.3469C96.6538 20.8263 96.6538 20.3625 96.6538 19.8809C92.268 19.8809 87.9212 19.8809 83.5504 19.8809C83.4696 19.8809 83.3888 19.8809 83.3111 19.8809C83.3111 20.0574 83.3111 20.2309 83.3111 20.4074C83.3111 27.3306 83.3111 34.2268 83.3111 41.1559C83.32 41.1559 83.332 41.1559 83.341 41.1559C83.341 41.1589 83.341 41.1619 83.341 41.1649C87.8075 41.1649 92.2471 41.1649 96.7076 41.1649C96.7076 40.8268 96.7076 40.5037 96.7076 40.1537C96.7076 40.1267 96.7076 40.1028 96.7076 40.0759C96.7076 39.9472 96.7076 39.8186 96.7076 39.681C92.7766 39.678 88.9084 39.678 85.0402 39.678Z" fill="#034A8E"/>
<path id="Vector_35" d="M100.935 39.678C100.935 36.8118 100.935 33.9964 100.935 31.1422C101.159 31.1422 101.348 31.1422 101.536 31.1422C103.433 31.1422 105.332 31.1422 107.229 31.1422C108.076 31.1422 108.919 31.1512 109.766 31.1332H109.769C109.874 31.1332 109.978 31.1332 110.083 31.1332C110.083 31.0884 110.083 31.0435 110.083 30.9986C110.083 30.5558 110.083 30.1459 110.083 29.6792C107.008 29.6792 103.941 29.6792 100.857 29.6792C100.857 26.8758 100.857 24.1413 100.857 21.3529C100.881 21.3529 100.902 21.3529 100.926 21.3529C104.812 21.3529 108.671 21.3529 112.548 21.3529C112.548 21.3499 112.548 21.3499 112.548 21.3469C112.548 20.8263 112.548 20.3625 112.548 19.8809C108.163 19.8809 103.816 19.8809 99.4449 19.8809C99.3642 19.8809 99.2834 19.8809 99.2056 19.8809C99.2056 20.0574 99.2056 20.2309 99.2056 20.4074C99.2056 27.3306 99.2056 34.2268 99.2056 41.1559C99.2146 41.1559 99.2265 41.1559 99.2355 41.1559C99.2355 41.1589 99.2355 41.1619 99.2355 41.1649C103.702 41.1649 108.142 41.1649 112.602 41.1649C112.602 40.8268 112.602 40.5037 112.602 40.1537C112.602 40.1267 112.602 40.1028 112.602 40.0759C112.602 39.9472 112.602 39.8186 112.602 39.681C108.671 39.678 104.803 39.678 100.935 39.678Z" fill="#034A8E"/>
</g>
</g>
</g>
<defs>
<clipPath id="clip0_1_29">
<rect width="196" height="54" fill="white"/>
</clipPath>
</defs>
</svg>
